<?xml version="1.0" encoding="UTF-8" standalone="no"?>
<!-- Created with Inkscape (http://www.inkscape.org/) -->

<svg
   xmlns:dc="http://purl.org/dc/elements/1.1/"
   xmlns:cc="http://creativecommons.org/ns#"
   xmlns:rdf="http://www.w3.org/1999/02/22-rdf-syntax-ns#"
   xmlns:svg="http://www.w3.org/2000/svg"
   xmlns="http://www.w3.org/2000/svg"
   xmlns:sodipodi="http://sodipodi.sourceforge.net/DTD/sodipodi-0.dtd"
   xmlns:inkscape="http://www.inkscape.org/namespaces/inkscape"
   width="27.818731mm"
   height="27.819284mm"
   viewBox="0 0 98.570308 98.572267"
   id="svg2"
   version="1.1"
   inkscape:version="0.91 r13725"
   sodipodi:docname="gear.svg">
  <defs
     id="defs4" />
  <sodipodi:namedview
     id="base"
     pagecolor="#ffffff"
     bordercolor="#666666"
     borderopacity="1.0"
     inkscape:pageopacity="0.0"
     inkscape:pageshadow="2"
     inkscape:zoom="2.8"
     inkscape:cx="81.990598"
     inkscape:cy="28.38189"
     inkscape:document-units="px"
     inkscape:current-layer="layer1"
     showgrid="false"
     inkscape:window-width="1600"
     inkscape:window-height="873"
     inkscape:window-x="0"
     inkscape:window-y="27"
     inkscape:window-maximized="1"
     fit-margin-top="0"
     fit-margin-left="0"
     fit-margin-right="0"
     fit-margin-bottom="0">
    <inkscape:grid
       type="xygrid"
       id="grid4152"
       originx="-269.13673"
       originy="-686.07119" />
  </sodipodi:namedview>
  <metadata
     id="metadata7">
    <rdf:RDF>
      <cc:Work
         rdf:about="">
        <dc:format>image/svg+xml</dc:format>
        <dc:type
           rdf:resource="http://purl.org/dc/dcmitype/StillImage" />
        <dc:title></dc:title>
      </cc:Work>
    </rdf:RDF>
  </metadata>
  <g
     inkscape:label="Layer 1"
     inkscape:groupmode="layer"
     id="layer1"
     transform="translate(-269.13672,-267.71875)">
    <path
       style="opacity:1;fill:#ffffff;fill-opacity:1;stroke:none;stroke-width:0;stroke-linecap:butt;stroke-linejoin:miter;stroke-miterlimit:4;stroke-dasharray:none;stroke-dashoffset:0;stroke-opacity:1"
       d="m 318.42188,267.71875 a 49.285713,49.285713 0 0 0 -9.31641,0.92969 l -3.95899,16.30664 -14.32421,-8.72852 A 49.285713,49.285713 0 0 0 277.625,289.37109 l 8.74805,14.35938 -16.32617,3.96484 a 49.285713,49.285713 0 0 0 -0.91016,9.31055 49.285713,49.285713 0 0 0 0.92773,9.31641 l 16.3086,3.95898 -8.72852,14.32617 a 49.285713,49.285713 0 0 0 13.14453,13.19531 l 14.35742,-8.74804 3.96485,16.32617 a 49.285713,49.285713 0 0 0 9.31055,0.91016 49.285713,49.285713 0 0 0 9.3164,-0.92774 l 3.95899,-16.30859 14.32617,8.72851 a 49.285713,49.285713 0 0 0 13.19726,-13.14453 l -8.74804,-14.35742 16.32422,-3.96289 a 49.285713,49.285713 0 0 0 0.91015,-9.3125 49.285713,49.285713 0 0 0 -0.92773,-9.31641 l -16.30664,-3.95898 8.72656,-14.32422 a 49.285713,49.285713 0 0 0 -13.14453,-13.19922 l -14.35742,8.74805 -3.96485,-16.32617 a 49.285713,49.285713 0 0 0 -9.31054,-0.91016 z m 0,23.21484 a 26.071428,26.071428 0 0 1 26.07226,26.07227 26.071428,26.071428 0 0 1 -26.07226,26.07031 26.071428,26.071428 0 0 1 -26.07227,-26.07031 26.071428,26.071428 0 0 1 26.07227,-26.07227 z"
       id="path4144"
       inkscape:connector-curvature="0" />
    <path
       style="opacity:1;fill:#ffffff;fill-opacity:1;stroke:none;stroke-width:0;stroke-linecap:butt;stroke-linejoin:miter;stroke-miterlimit:4;stroke-dasharray:none;stroke-dashoffset:0;stroke-opacity:1"
       d="m 318.42188,275.2207 a 41.785713,41.785713 0 0 0 -41.78516,41.78516 41.785713,41.785713 0 0 0 41.78516,41.78516 41.785713,41.785713 0 0 0 41.78515,-41.78516 41.785713,41.785713 0 0 0 -41.78515,-41.78516 z m 0,15.71289 a 26.071428,26.071428 0 0 1 26.07226,26.07227 26.071428,26.071428 0 0 1 -26.07226,26.07031 26.071428,26.071428 0 0 1 -26.07227,-26.07031 26.071428,26.071428 0 0 1 26.07227,-26.07227 z"
       id="circle4155"
       inkscape:connector-curvature="0" />
  </g>
</svg>
