<?xml version="1.0" encoding="UTF-8" standalone="no"?>
<!-- Created with Inkscape (http://www.inkscape.org/) -->

<svg
   xmlns:dc="http://purl.org/dc/elements/1.1/"
   xmlns:cc="http://creativecommons.org/ns#"
   xmlns:rdf="http://www.w3.org/1999/02/22-rdf-syntax-ns#"
   xmlns:svg="http://www.w3.org/2000/svg"
   xmlns="http://www.w3.org/2000/svg"
   xmlns:xlink="http://www.w3.org/1999/xlink"
   xmlns:sodipodi="http://sodipodi.sourceforge.net/DTD/sodipodi-0.dtd"
   xmlns:inkscape="http://www.inkscape.org/namespaces/inkscape"
   width="44.767647mm"
   height="44.767647mm"
   viewBox="0 0 44.767647 44.767647"
   version="1.1"
   id="svg8"
   inkscape:version="0.92pre2 r"
   sodipodi:docname="loading-spinner.svg">
  <defs
     id="defs2">
    <linearGradient
       inkscape:collect="always"
       id="linearGradient5946">
      <stop
         style="stop-color:#ffffff;stop-opacity:0"
         offset="0"
         id="stop5942" />
      <stop
         style="stop-color:#ffffff;stop-opacity:0.1254902"
         offset="1"
         id="stop5944" />
    </linearGradient>
    <linearGradient
       inkscape:collect="always"
       id="linearGradient5938">
      <stop
         style="stop-color:#ffffff;stop-opacity:0.1254902"
         offset="0"
         id="stop5934" />
      <stop
         style="stop-color:#ffffff;stop-opacity:0;"
         offset="1"
         id="stop5936" />
    </linearGradient>
    <linearGradient
       inkscape:collect="always"
       xlink:href="#linearGradient5938"
       id="linearGradient5940"
       x1="348.83984"
       y1="515.01953"
       x2="360.41965"
       y2="515.01953"
       gradientUnits="userSpaceOnUse" />
    <linearGradient
       inkscape:collect="always"
       xlink:href="#linearGradient5946"
       id="linearGradient5948"
       x1="337.11606"
       y1="515.01953"
       x2="348.83984"
       y2="515.01953"
       gradientUnits="userSpaceOnUse" />
  </defs>
  <sodipodi:namedview
     id="base"
     pagecolor="#282828"
     bordercolor="#666666"
     borderopacity="1.0"
     inkscape:pageopacity="1"
     inkscape:pageshadow="2"
     inkscape:zoom="3.959798"
     inkscape:cx="54.994794"
     inkscape:cy="56.145303"
     inkscape:document-units="mm"
     inkscape:current-layer="layer2"
     showgrid="false"
     fit-margin-top="0"
     fit-margin-left="0"
     fit-margin-right="0"
     fit-margin-bottom="0"
     inkscape:window-width="2560"
     inkscape:window-height="1376"
     inkscape:window-x="0"
     inkscape:window-y="27"
     inkscape:window-maximized="1">
    <inkscape:grid
       type="xygrid"
       id="grid3670"
       originx="-186.8882"
       originy="-436.6516" />
  </sodipodi:namedview>
  <metadata
     id="metadata5">
    <rdf:RDF>
      <cc:Work
         rdf:about="">
        <dc:format>image/svg+xml</dc:format>
        <dc:type
           rdf:resource="http://purl.org/dc/dcmitype/StillImage" />
        <dc:title></dc:title>
      </cc:Work>
    </rdf:RDF>
  </metadata>
  <g
     inkscape:groupmode="layer"
     id="layer3"
     inkscape:label="margin"
     style="display:none"
     transform="translate(-55.12434,-113.85356)">
    <circle
       r="22.383823"
       cy="136.23738"
       cx="77.508163"
       id="circle5953"
       style="fill:#ffffff;fill-opacity:0.01968503;stroke-width:0.50939888" />
  </g>
  <g
     inkscape:label="spheres"
     inkscape:groupmode="layer"
     id="layer1"
     transform="translate(-55.12434,-113.85356)">
    <circle
       style="fill:#ffffff;stroke-width:0.26458332"
       id="path3663"
       cx="77.508163"
       cy="136.23737"
       r="11.626225" />
    <circle
       r="2.0045226"
       cy="136.23737"
       cx="97.018837"
       id="circle3665"
       style="fill:#ffffff;stroke-width:0.04561783" />
    <path
       style="fill:url(#linearGradient5948);fill-opacity:1;stroke-width:0.75277185"
       d="m 348.83984,510.80859 c -4.9285,-0.0291 -9.81667,-2.19507 -12.83984,-7.95117 v 24.32422 c 3.02317,-5.7561 7.91134,-7.92207 12.83984,-7.95117 z"
       id="path5932"
       transform="scale(0.26458333)"
       inkscape:connector-curvature="0" />
    <path
       style="fill:url(#linearGradient5940);fill-opacity:1;stroke-width:0.75277185"
       d="m 348.83984,510.80859 v 8.42188 c 4.47676,-0.0264 8.98693,1.69971 12.16016,4.28906 v -17 c -3.17323,2.58935 -7.6834,4.3155 -12.16016,4.28906 z"
       id="rect3667"
       transform="scale(0.26458333)"
       inkscape:connector-curvature="0" />
  </g>
  <g
     inkscape:groupmode="layer"
     id="layer2"
     inkscape:label="trail"
     transform="translate(-55.12434,-113.85356)">
    <path
       style="fill:#ffffff;fill-opacity:1;stroke-width:1.70283258"
       d="m 292.94336,440.08789 a 74.825256,74.825256 0 0 0 -0.83594,0.0293 74.825256,74.825256 0 0 1 6.87891,0.34375 74.825256,74.825256 0 0 1 7.39453,1.11914 74.825256,74.825256 0 0 1 7.24805,1.84961 74.825256,74.825256 0 0 1 7.02539,2.56445 74.825256,74.825256 0 0 1 6.73437,3.25391 74.825256,74.825256 0 0 1 6.37695,3.9082 74.825256,74.825256 0 0 1 5.95313,4.52734 74.825256,74.825256 0 0 1 5.47266,5.09766 74.825256,74.825256 0 0 1 4.9375,5.61914 74.825256,74.825256 0 0 1 4.34961,6.08399 74.825256,74.825256 0 0 1 3.72265,6.48828 74.825256,74.825256 0 0 1 3.05469,6.82617 74.825256,74.825256 0 0 1 2.35742,7.09765 74.825256,74.825256 0 0 1 1.63867,7.29883 74.825256,74.825256 0 0 1 0.90235,7.42383 74.825256,74.825256 0 0 1 0.0918,2.5918 74.825257,74.825257 0 0 0 1.34961,-0.77344 74.825256,74.825256 0 0 0 -74.65234,-71.34961 z"
       transform="scale(0.26458333)"
       id="path6000"
       inkscape:connector-curvature="0" />
  </g>
</svg>
